STARTFONT 2.3
FONT -FontForge-Henny Penny-Book-R-Normal--10-100-72-72-P-57-ISO10646-1
SIZE 10 72 72  4
FONTBOUNDINGBOX 15 18 -2 -6
COMMENT "Generated by fontforge, http://fontforge.sourceforge.net"
COMMENT "Copyright (c) 2012, Brownfox (gayaneh.b@gmail.com), with Reserved Font Name "Henny Penny""
STARTPROPERTIES 40
FOUNDRY "FontForge"
FAMILY_NAME "Henny Penny"
WEIGHT_NAME "Book"
SLANT "R"
SETWIDTH_NAME "Normal"
ADD_STYLE_NAME ""
PIXEL_SIZE 10
POINT_SIZE 100
RESOLUTION_X 72
RESOLUTION_Y 72
SPACING "P"
AVERAGE_WIDTH 57
CHARSET_REGISTRY "ISO10646"
CHARSET_ENCODING "1"
FONTNAME_REGISTRY ""
CHARSET_COLLECTIONS "ISO10646-1"
BITS_PER_PIXEL 4
FONT_NAME "HennyPenny-Regular"
FACE_NAME "Henny Penny"
COPYRIGHT "Copyright (c) 2012, Brownfox (gayaneh.b@gmail.com), with Reserved Font Name "Henny Penny""
FONT_VERSION "1.001"
FONT_ASCENT 8
FONT_DESCENT 2
UNDERLINE_POSITION -1
UNDERLINE_THICKNESS 1
X_HEIGHT 6
CAP_HEIGHT 7
RAW_ASCENT 799
RAW_DESCENT 200
NORM_SPACE 3
RELATIVE_WEIGHT 40
RELATIVE_SETWIDTH 50
SUPERSCRIPT_X 0
SUPERSCRIPT_Y 3
SUPERSCRIPT_SIZE 6
SUBSCRIPT_X 0
SUBSCRIPT_Y 0
SUBSCRIPT_SIZE 6
AVG_LOWERCASE_WIDTH 50
AVG_UPPERCASE_WIDTH 71
ENDPROPERTIES
CHARS 233
STARTCHAR space
ENCODING 32
SWIDTH 270 0
DWIDTH 3 0
BBX 1 1 0 0
BITMAP
00
ENDCHAR
STARTCHAR exclam
ENCODING 33
SWIDTH 249 0
DWIDTH 2 0
BBX 2 9 0 0
BITMAP
6C
6E
4E
2D
0B
08
06
01
5A
ENDCHAR
STARTCHAR quotedbl
ENCODING 34
SWIDTH 292 0
DWIDTH 3 0
BBX 3 3 0 5
BITMAP
7660
6650
3430
ENDCHAR
STARTCHAR numbersign
ENCODING 35
SWIDTH 1030 0
DWIDTH 10 0
BBX 10 11 0 -3
BITMAP
0000050000
0000154100
1110506000
1335A85343
0004170000
0029774510
2686800000
0092500000
0367000000
0217000000
0052000000
ENDCHAR
STARTCHAR dollar
ENCODING 36
SWIDTH 799 0
DWIDTH 8 0
BBX 6 12 1 -3
BITMAP
000223
01CFD8
08B565
07E601
01ED10
004FB0
3045F3
6250C5
AB52E2
38FD60
022000
010000
ENDCHAR
STARTCHAR percent
ENCODING 37
SWIDTH 789 0
DWIDTH 8 0
BBX 8 9 0 0
BITMAP
2CE70050
6A2D0520
2DE73500
00017000
00080000
00626EC2
0341D178
1601D188
60009EB1
ENDCHAR
STARTCHAR ampersand
ENCODING 38
SWIDTH 773 0
DWIDTH 8 0
BBX 8 10 0 -1
BITMAP
02CE3000
08455000
09291000
07D31680
0CC13290
7CA60170
AA2D2530
7E46D700
1AEDBD64
000008C0
ENDCHAR
STARTCHAR quotesingle
ENCODING 39
SWIDTH 174 0
DWIDTH 2 0
BBX 2 3 0 5
BITMAP
63
53
22
ENDCHAR
STARTCHAR parenleft
ENCODING 40
SWIDTH 431 0
DWIDTH 4 0
BBX 5 14 0 -4
BITMAP
013000
080000
280000
750000
A30000
C30000
D30000
C40000
A70000
6B0000
1E2000
069000
00A300
001810
ENDCHAR
STARTCHAR parenright
ENCODING 41
SWIDTH 443 0
DWIDTH 4 0
BBX 5 11 0 -3
BITMAP
240000
069000
009800
002E10
000D40
000C50
000E20
003C00
00B300
293000
200000
ENDCHAR
STARTCHAR asterisk
ENCODING 42
SWIDTH 490 0
DWIDTH 5 0
BBX 5 5 0 5
BITMAP
001000
00B110
348920
26B500
061A30
ENDCHAR
STARTCHAR plus
ENCODING 43
SWIDTH 440 0
DWIDTH 4 0
BBX 4 7 0 0
BITMAP
0020
0040
0051
7FEA
0060
0050
0010
ENDCHAR
STARTCHAR comma
ENCODING 44
SWIDTH 251 0
DWIDTH 3 0
BBX 2 3 0 -1
BITMAP
6D
1B
14
ENDCHAR
STARTCHAR hyphen
ENCODING 45
SWIDTH 436 0
DWIDTH 4 0
BBX 4 2 0 2
BITMAP
1001
4DFA
ENDCHAR
STARTCHAR period
ENCODING 46
SWIDTH 238 0
DWIDTH 2 0
BBX 2 2 0 0
BITMAP
5B
5B
ENDCHAR
STARTCHAR slash
ENCODING 47
SWIDTH 690 0
DWIDTH 7 0
BBX 7 10 0 0
BITMAP
00000010
00000150
00000700
00006200
00035000
00070000
00710000
04300000
16000000
60000000
ENDCHAR
STARTCHAR zero
ENCODING 48
SWIDTH 723 0
DWIDTH 7 0
BBX 8 7 0 1
BITMAP
05CFD600
4D314D70
B60005E0
D40002F1
B80003E0
4E612B80
04CFD700
ENDCHAR
STARTCHAR one
ENCODING 49
SWIDTH 505 0
DWIDTH 5 0
BBX 5 9 0 -1
BITMAP
007000
2BD000
A6F000
00D300
00A600
009900
008D10
04DFC0
2C5100
ENDCHAR
STARTCHAR two
ENCODING 50
SWIDTH 534 0
DWIDTH 5 0
BBX 6 9 0 -1
BITMAP
2CEB10
713E70
400B80
000D30
005800
049000
580000
167232
002B70
ENDCHAR
STARTCHAR three
ENCODING 51
SWIDTH 511 0
DWIDTH 5 0
BBX 6 9 0 -1
BITMAP
220000
8FFD10
520400
004000
008C20
3006D0
6002F1
8518E0
1AED40
ENDCHAR
STARTCHAR four
ENCODING 52
SWIDTH 712 0
DWIDTH 7 0
BBX 7 10 0 -2
BITMAP
00034000
001D2000
014A4000
15078000
A605B000
049AE120
0003EE40
0000C700
0006DE50
00000270
ENDCHAR
STARTCHAR five
ENCODING 53
SWIDTH 757 0
DWIDTH 8 0
BBX 8 9 0 -1
BITMAP
0004D525
00054EE1
00410140
0059A100
40007C00
50003F10
60005E00
8413D800
1AED8000
ENDCHAR
STARTCHAR six
ENCODING 54
SWIDTH 598 0
DWIDTH 6 0
BBX 6 8 0 0
BITMAP
04CFB2
2D3038
9BCEA1
CD2198
C8001C
A8001C
4E4197
05DE90
ENDCHAR
STARTCHAR seven
ENCODING 55
SWIDTH 507 0
DWIDTH 5 0
BBX 5 9 0 -1
BITMAP
200140
EFFF80
813810
300400
005200
00A000
069000
0C7000
010000
ENDCHAR
STARTCHAR eight
ENCODING 56
SWIDTH 476 0
DWIDTH 5 0
BBX 5 8 0 0
BITMAP
1BE900
7D1610
6E4400
0CF800
554C50
9003A0
B30780
4DEA10
ENDCHAR
STARTCHAR nine
ENCODING 57
SWIDTH 601 0
DWIDTH 6 0
BBX 6 8 0 0
BITMAP
2BED60
A814E5
D3009B
AA11CD
2BEEEC
0000C9
0017E2
4DFC40
ENDCHAR
STARTCHAR colon
ENCODING 58
SWIDTH 246 0
DWIDTH 2 0
BBX 2 5 0 0
BITMAP
5B
6B
00
00
3C
ENDCHAR
STARTCHAR semicolon
ENCODING 59
SWIDTH 266 0
DWIDTH 3 0
BBX 3 7 0 -2
BITMAP
3E10
3E10
0000
0000
5E00
2C00
2300
ENDCHAR
STARTCHAR less
ENCODING 60
SWIDTH 522 0
DWIDTH 5 0
BBX 5 6 0 0
BITMAP
000020
002610
164000
284000
004820
000020
ENDCHAR
STARTCHAR equal
ENCODING 61
SWIDTH 655 0
DWIDTH 7 0
BBX 6 3 0 2
BITMAP
0159CE
254210
6FECB3
ENDCHAR
STARTCHAR greater
ENCODING 62
SWIDTH 533 0
DWIDTH 5 0
BBX 5 6 0 0
BITMAP
220000
046000
001740
000640
017200
030000
ENDCHAR
STARTCHAR question
ENCODING 63
SWIDTH 564 0
DWIDTH 6 0
BBX 6 10 0 -1
BITMAP
1AED70
8816F2
C900F5
8E14E1
003D40
027100
050000
0B5000
000000
076000
ENDCHAR
STARTCHAR at
ENCODING 64
SWIDTH 898 0
DWIDTH 9 0
BBX 9 10 0 -3
BITMAP
003AEEA200
04B4115B00
0900000440
433DED7050
50D51D6050
51F0095050
51E51C8540
276EE5DA00
09614B0000
019EE70000
ENDCHAR
STARTCHAR A
ENCODING 65
SWIDTH 784 0
DWIDTH 8 0
BBX 8 9 0 -1
BITMAP
04EF6000
000CB000
0034F200
0060C700
00C7BC00
0398DF30
09101E80
EE4009E2
14407FFE
ENDCHAR
STARTCHAR B
ENCODING 66
SWIDTH 685 0
DWIDTH 7 0
BBX 7 10 0 -2
BITMAP
39BEE600
0971AC00
06806900
05937000
05FDFC10
05B02D80
05C009A0
05E22D70
09FFE900
63000000
ENDCHAR
STARTCHAR C
ENCODING 67
SWIDTH 742 0
DWIDTH 7 0
BBX 8 9 0 -1
BITMAP
00000050
04BEED90
3F8117A0
BC000060
D9000000
EA000004
BE100033
3FB30390
03BEEA10
ENDCHAR
STARTCHAR D
ENCODING 68
SWIDTH 726 0
DWIDTH 7 0
BBX 8 8 0 -2
BITMAP
8BCEFC20
1C703DC0
085005F1
077005F0
08B12D90
0BFFC600
4D610000
71000000
ENDCHAR
STARTCHAR E
ENCODING 69
SWIDTH 557 0
DWIDTH 6 0
BBX 6 10 0 -2
BITMAP
5469D0
4F5040
0E4000
0C5200
0AEB00
087500
078101
06A016
BFFDF6
001241
ENDCHAR
STARTCHAR F
ENCODING 70
SWIDTH 533 0
DWIDTH 5 0
BBX 6 9 0 0
BITMAP
1248C7
8FB146
0B9132
08A600
06FC00
04B500
03B100
05D000
ADC900
ENDCHAR
STARTCHAR G
ENCODING 71
SWIDTH 750 0
DWIDTH 8 0
BBX 8 8 0 0
BITMAP
00000014
03BEB171
3F7119A0
BB000440
E8001361
D905EFC0
7F501B80
08DFC750
ENDCHAR
STARTCHAR H
ENCODING 72
SWIDTH 743 0
DWIDTH 7 0
BBX 8 12 0 -2
BITMAP
32000000
0CFE1253
0A90EFC2
09700B80
09700970
09701A70
0AFEEF60
0A900860
0A800770
0B80BFF3
AFE01010
20100000
ENDCHAR
STARTCHAR I
ENCODING 73
SWIDTH 438 0
DWIDTH 4 0
BBX 6 11 -1 -2
BITMAP
2DCDED
02CE30
009B00
009900
009700
009500
009400
009300
00A400
07FF70
462000
ENDCHAR
STARTCHAR J
ENCODING 74
SWIDTH 628 0
DWIDTH 6 0
BBX 7 12 0 -3
BITMAP
00013780
00BFFA20
0007F200
0002F100
0001F100
0000F000
0000E000
0002D000
0004A000
9E295000
EF9C0000
8FB20000
ENDCHAR
STARTCHAR K
ENCODING 75
SWIDTH 866 0
DWIDTH 9 0
BBX 9 10 0 -1
BITMAP
0142420000
DFC27FF300
1E60750000
0C67400000
0ADF300000
098AD10150
0871DD4180
088019EE60
2FE5000000
0023000000
ENDCHAR
STARTCHAR L
ENCODING 76
SWIDTH 660 0
DWIDTH 7 0
BBX 7 9 0 0
BITMAP
32000000
8EFE7000
05F50000
04F20000
03F00000
03E00400
04E10810
6EFFFF50
23100000
ENDCHAR
STARTCHAR M
ENCODING 77
SWIDTH 1089 0
DWIDTH 11 0
BBX 12 8 0 -1
BITMAP
00000000BF30
03C72001D200
0075C101D000
00247910B200
00220D208700
002002006D20
D7200000CFF2
BC1000033100
ENDCHAR
STARTCHAR N
ENCODING 78
SWIDTH 799 0
DWIDTH 8 0
BBX 8 11 0 -3
BITMAP
01100002
EFD10EFD
0AFB01A0
067F9060
050AF660
0501CF80
05002E80
05000370
1A100000
DFD10000
00310000
ENDCHAR
STARTCHAR O
ENCODING 79
SWIDTH 747 0
DWIDTH 7 0
BBX 8 7 0 0
BITMAP
05DFD810
5D314EB0
C60005F4
E50001F6
C90002F4
5F612AC0
05CFE910
ENDCHAR
STARTCHAR P
ENCODING 80
SWIDTH 623 0
DWIDTH 6 0
BBX 7 8 0 -1
BITMAP
EFFFFA00
06F22F30
02E04F10
02FFE600
02E00000
03E00000
05F10000
3CFA3000
ENDCHAR
STARTCHAR Q
ENCODING 81
SWIDTH 804 0
DWIDTH 8 0
BBX 12 12 0 -4
BITMAP
02BEEA300000
2D513BE30000
A70000CA0000
E400007D0000
D500BC6C0000
AB0345E90000
3FA615F30000
03BEEAC70000
0000008C0000
0000005F3003
0000001EC253
00000004DE70
ENDCHAR
STARTCHAR R
ENCODING 82
SWIDTH 869 0
DWIDTH 9 0
BBX 9 8 0 -1
BITMAP
EFFFE60000
1BC16E0000
06A19D0000
04FFE50000
03A4E20030
04C0AD4170
9FF808DE60
0002000000
ENDCHAR
STARTCHAR S
ENCODING 83
SWIDTH 517 0
DWIDTH 5 0
BBX 6 10 0 -1
BITMAP
000010
04DB50
0B7190
096030
01C300
002D20
5006C0
9001F2
A814F2
31CE60
ENDCHAR
STARTCHAR T
ENCODING 84
SWIDTH 659 0
DWIDTH 7 0
BBX 7 10 0 -1
BITMAP
BFFFFFD0
910761A0
60086040
22096000
00096000
000A6000
000B6000
000DA000
008FFF30
03830000
ENDCHAR
STARTCHAR U
ENCODING 85
SWIDTH 690 0
DWIDTH 7 0
BBX 8 7 0 0
BITMAP
137C3000
EFF6EDD6
1DB01930
0BA00410
0AB00510
06F41900
009ED400
ENDCHAR
STARTCHAR V
ENCODING 86
SWIDTH 798 0
DWIDTH 8 0
BBX 9 8 0 0
BITMAP
0015200020
DFF91029A0
04E60BFB10
007D108100
000D805000
0006F82000
0000E90000
0000630000
ENDCHAR
STARTCHAR W
ENCODING 87
SWIDTH 1120 0
DWIDTH 11 0
BBX 14 9 -1 -1
BITMAP
00000000015100
0001000000AFF6
00470000000B10
16E70040005300
006C03D4007000
001F456D043000
000BD11E970000
00067008F30000
00000002900000
ENDCHAR
STARTCHAR X
ENCODING 88
SWIDTH 868 0
DWIDTH 9 0
BBX 9 9 0 -1
BITMAP
0014300000
EFFF502000
029F307D20
0008D38100
0000ED0000
00062C4000
017402C000
9FF44FFA20
0145000120
ENDCHAR
STARTCHAR Y
ENCODING 89
SWIDTH 796 0
DWIDTH 8 0
BBX 9 11 0 -2
BITMAP
0144004100
DFD400AFC0
18E2005200
008D352000
000AF40000
0001F00000
0000F00000
0001F10000
0005F30000
009FFC0000
0000150000
ENDCHAR
STARTCHAR Z
ENCODING 90
SWIDTH 627 0
DWIDTH 6 0
BBX 7 9 0 -1
BITMAP
32012000
6FFF8000
512F2000
006A0000
00B40000
01C00300
05701A10
0BABEF60
09631010
ENDCHAR
STARTCHAR bracketleft
ENCODING 91
SWIDTH 344 0
DWIDTH 3 0
BBX 4 10 0 -2
BITMAP
2E91
4B00
6800
8700
A600
B500
C500
D500
D700
AFE2
ENDCHAR
STARTCHAR backslash
ENCODING 92
SWIDTH 347 0
DWIDTH 3 0
BBX 4 12 0 -2
BITMAP
2000
6000
6000
2300
0600
0600
0510
0150
0060
0060
0023
0001
ENDCHAR
STARTCHAR bracketright
ENCODING 93
SWIDTH 334 0
DWIDTH 3 0
BBX 4 11 0 -3
BITMAP
0120
4EA0
16B0
05D0
04E0
04F0
03F1
03F2
04F3
0A91
4200
ENDCHAR
STARTCHAR asciicircum
ENCODING 94
SWIDTH 658 0
DWIDTH 7 0
BBX 6 2 0 6
BITMAP
04AC51
6C88CE
ENDCHAR
STARTCHAR underscore
ENCODING 95
SWIDTH 678 0
DWIDTH 7 0
BBX 7 2 0 -4
BITMAP
159BDF30
23211000
ENDCHAR
STARTCHAR grave
ENCODING 96
SWIDTH 278 0
DWIDTH 3 0
BBX 3 2 0 7
BITMAP
5700
0720
ENDCHAR
STARTCHAR a
ENCODING 97
SWIDTH 527 0
DWIDTH 5 0
BBX 6 7 0 -1
BITMAP
1CE500
554D00
3D0F10
4DFF40
C51D70
7EB9A3
0002E5
ENDCHAR
STARTCHAR b
ENCODING 98
SWIDTH 582 0
DWIDTH 6 0
BBX 7 12 -1 -1
BITMAP
03600000
BF800000
06900000
04A00000
03A00000
02B00000
02D9EC10
01F31C80
01F00890
00F51C70
04FFFA10
0C620000
ENDCHAR
STARTCHAR c
ENCODING 99
SWIDTH 437 0
DWIDTH 4 0
BBX 5 6 0 1
BITMAP
09FA00
756D00
B00000
C10410
991620
2CE900
ENDCHAR
STARTCHAR d
ENCODING 100
SWIDTH 523 0
DWIDTH 5 0
BBX 6 9 0 0
BITMAP
008E80
000980
000870
000870
000860
3DFE60
C80860
C80870
4DFED5
ENDCHAR
STARTCHAR e
ENCODING 101
SWIDTH 434 0
DWIDTH 4 0
BBX 5 5 0 0
BITMAP
1AEB00
981D20
CFE900
A91420
2CFB00
ENDCHAR
STARTCHAR f
ENCODING 102
SWIDTH 299 0
DWIDTH 3 0
BBX 6 13 -1 -2
BITMAP
001BE5
00753A
00A2E5
01C110
4EFD30
01F000
00F000
00F000
00F100
00F200
00F400
08FF60
062000
ENDCHAR
STARTCHAR g
ENCODING 103
SWIDTH 567 0
DWIDTH 6 0
BBX 7 10 -1 -4
BITMAP
00003EA0
01CFD6C0
08C1A700
09C1A700
02DFC100
00BFC600
06915E30
0F300A50
1F813C10
06EEB300
ENDCHAR
STARTCHAR h
ENCODING 104
SWIDTH 566 0
DWIDTH 6 0
BBX 7 11 -1 -1
BITMAP
02840000
2EF20000
00B00000
00A00000
00B00000
00BAE600
00E47C00
01D04C00
05C05D00
5FF6DE90
00001000
ENDCHAR
STARTCHAR i
ENCODING 105
SWIDTH 301 0
DWIDTH 3 0
BBX 3 7 0 1
BITMAP
0D10
0000
CF30
1F10
0F00
1E10
BEC0
ENDCHAR
STARTCHAR j
ENCODING 106
SWIDTH 367 0
DWIDTH 4 0
BBX 6 11 -2 -5
BITMAP
000680
000020
006FF2
0005F4
0000C6
000087
000076
09D075
1C5092
1914B0
07EC20
ENDCHAR
STARTCHAR k
ENCODING 107
SWIDTH 567 0
DWIDTH 6 0
BBX 7 11 -1 -1
BITMAP
AFC00000
01C00000
00C00000
00C00000
00C23000
00D3ED00
00D56000
00DE2130
00D8B160
00E5AE40
1CCD9000
ENDCHAR
STARTCHAR l
ENCODING 108
SWIDTH 354 0
DWIDTH 4 0
BBX 5 10 -1 -1
BITMAP
04A200
7BF300
00E300
00C400
00A500
009600
007600
007900
06FF70
001000
ENDCHAR
STARTCHAR m
ENCODING 109
SWIDTH 708 0
DWIDTH 7 0
BBX 7 5 0 0
BITMAP
03000000
3ECD9E40
0B6F8A60
7F902B60
00100040
ENDCHAR
STARTCHAR n
ENCODING 110
SWIDTH 584 0
DWIDTH 6 0
BBX 6 7 0 -1
BITMAP
040000
5E1CD1
1D41C5
094095
0660B4
3FECF2
001035
ENDCHAR
STARTCHAR o
ENCODING 111
SWIDTH 503 0
DWIDTH 5 0
BBX 5 5 0 1
BITMAP
1AEB20
9A1990
B703C0
9C1690
1BEB10
ENDCHAR
STARTCHAR p
ENCODING 112
SWIDTH 509 0
DWIDTH 5 0
BBX 5 10 0 -5
BITMAP
9F1000
0CAE70
0C44D0
0C35C0
0CED30
0D3000
0D3000
1E5000
9FE200
002100
ENDCHAR
STARTCHAR q
ENCODING 113
SWIDTH 505 0
DWIDTH 5 0
BBX 5 10 0 -4
BITMAP
000B40
5EEE10
C71D10
6EDE10
000D10
000D10
000E10
000E10
03FF90
001380
ENDCHAR
STARTCHAR r
ENCODING 114
SWIDTH 414 0
DWIDTH 4 0
BBX 5 7 0 0
BITMAP
BD9F80
0EB680
0D5000
0C4000
0B5000
0B8000
9FF600
ENDCHAR
STARTCHAR s
ENCODING 115
SWIDTH 482 0
DWIDTH 5 0
BBX 5 8 0 -1
BITMAP
000010
05EA40
094520
027200
032910
460690
5718B0
01DD40
ENDCHAR
STARTCHAR t
ENCODING 116
SWIDTH 434 0
DWIDTH 4 0
BBX 5 8 0 0
BITMAP
008000
05B000
AFFA00
0D6000
2E0000
4D0000
2F3820
08EB00
ENDCHAR
STARTCHAR u
ENCODING 117
SWIDTH 744 0
DWIDTH 7 0
BBX 8 5 0 0
BITMAP
BF25FC00
09502D00
07801F10
04E26BE6
00AE6220
ENDCHAR
STARTCHAR v
ENCODING 118
SWIDTH 600 0
DWIDTH 6 0
BBX 6 6 0 0
BITMAP
176000
2B92EC
04E061
00C550
005D30
000900
ENDCHAR
STARTCHAR w
ENCODING 119
SWIDTH 745 0
DWIDTH 7 0
BBX 8 6 0 0
BITMAP
164001B6
DF517080
0E84E330
09B3BB00
04F23800
00900000
ENDCHAR
STARTCHAR x
ENCODING 120
SWIDTH 548 0
DWIDTH 5 0
BBX 6 6 0 1
BITMAP
029400
FFA100
19E8F7
00CB20
03DC10
69BFF2
ENDCHAR
STARTCHAR y
ENCODING 121
SWIDTH 659 0
DWIDTH 7 0
BBX 7 11 0 -5
BITMAP
16C00010
CF54EF60
2F106E00
0E304D00
09A19C00
02CE7A00
00004800
00007400
07E1A000
06178000
08EA0000
ENDCHAR
STARTCHAR z
ENCODING 122
SWIDTH 460 0
DWIDTH 5 0
BBX 5 6 0 -1
BITMAP
AEEC00
606400
01A000
0A3250
6FFF80
210000
ENDCHAR
STARTCHAR braceleft
ENCODING 123
SWIDTH 460 0
DWIDTH 5 0
BBX 5 13 0 -3
BITMAP
00AE30
02C000
03B000
02E000
01F200
19C000
691000
047000
01D000
02E000
03E000
02F340
00AE30
ENDCHAR
STARTCHAR bar
ENCODING 124
SWIDTH 368 0
DWIDTH 4 0
BBX 2 11 1 -2
BITMAP
50
50
50
50
50
50
50
41
31
32
22
ENDCHAR
STARTCHAR braceright
ENCODING 125
SWIDTH 476 0
DWIDTH 5 0
BBX 5 11 0 -3
BITMAP
9EB000
03F400
00E500
00B500
001940
000C00
000C20
000860
000680
001A50
00E800
ENDCHAR
STARTCHAR asciitilde
ENCODING 126
SWIDTH 733 0
DWIDTH 7 0
BBX 7 2 0 2
BITMAP
0AE92170
4239ED20
ENDCHAR
STARTCHAR nonbreakingspace
ENCODING 160
SWIDTH 270 0
DWIDTH 3 0
BBX 1 1 0 0
BITMAP
00
ENDCHAR
STARTCHAR exclamdown
ENCODING 161
SWIDTH 247 0
DWIDTH 2 0
BBX 2 11 0 -1
BITMAP
59
00
00
06
09
1B
2C
4D
5E
6E
5B
ENDCHAR
STARTCHAR cent
ENCODING 162
SWIDTH 799 0
DWIDTH 8 0
BBX 6 9 1 -2
BITMAP
004000
03DE80
0D81C2
4C31E2
5C0400
2F5542
05DF70
000320
000040
ENDCHAR
STARTCHAR sterling
ENCODING 163
SWIDTH 799 0
DWIDTH 8 0
BBX 6 9 1 -1
BITMAP
01BE90
0971E2
0D37D0
0B7000
38E400
00D600
008900
3EF914
4FC9EA
ENDCHAR
STARTCHAR currency
ENCODING 164
SWIDTH 732 0
DWIDTH 7 0
BBX 7 7 0 0
BITMAP
10006100
1ADFE300
19202800
38114700
0BFEB400
09100440
03000000
ENDCHAR
STARTCHAR yen
ENCODING 165
SWIDTH 799 0
DWIDTH 8 0
BBX 8 11 0 -2
BITMAP
00140000
7FF70156
04EB1FB2
006F4510
000CE600
0005F200
00CEFFF5
0047FE60
0004E100
005DFF20
00751000
ENDCHAR
STARTCHAR brokenbar
ENCODING 166
SWIDTH 341 0
DWIDTH 3 0
BBX 1 12 1 -3
BITMAP
40
50
50
50
10
10
50
50
50
60
60
50
ENDCHAR
STARTCHAR section
ENCODING 167
SWIDTH 546 0
DWIDTH 5 0
BBX 5 11 0 -3
BITMAP
04DE70
0D24C0
0E6000
09F900
662B90
6C10B0
0AE560
004D40
000180
06B160
04EC20
ENDCHAR
STARTCHAR dieresis
ENCODING 168
SWIDTH 393 0
DWIDTH 4 0
BBX 3 1 1 6
BITMAP
C930
ENDCHAR
STARTCHAR copyright
ENCODING 169
SWIDTH 1023 0
DWIDTH 10 0
BBX 10 9 0 -2
BITMAP
003BEEC700
05B41339B0
1909EB0076
524B162008
604C133008
6109E90018
2700000093
0893114A70
005CFEB400
ENDCHAR
STARTCHAR ordfeminine
ENCODING 170
SWIDTH 558 0
DWIDTH 6 0
BBX 6 5 0 3
BITMAP
3DD300
675800
1BFA00
594C41
3EBBC0
ENDCHAR
STARTCHAR guillemotleft
ENCODING 171
SWIDTH 608 0
DWIDTH 6 0
BBX 6 10 0 -3
BITMAP
000001
000114
000652
00A290
2C87A0
3E83E2
02D276
003A17
000722
000020
ENDCHAR
STARTCHAR logicalnot
ENCODING 172
SWIDTH 616 0
DWIDTH 6 0
BBX 6 3 0 2
BITMAP
6FDCC9
000007
000003
ENDCHAR
STARTCHAR uni00AD
ENCODING 173
SWIDTH 436 0
DWIDTH 4 0
BBX 4 2 0 2
BITMAP
1001
4DFA
ENDCHAR
STARTCHAR registered
ENCODING 174
SWIDTH 1048 0
DWIDTH 10 0
BBX 10 9 0 -2
BITMAP
003AEFD810
06B41026A1
195FFF8016
620856C004
7007FD4004
63098E3405
2A9EECEB16
07B41126B1
004BEFD810
ENDCHAR
STARTCHAR macron
ENCODING 175
SWIDTH 382 0
DWIDTH 4 0
BBX 4 1 0 8
BITMAP
4DF3
ENDCHAR
STARTCHAR degree
ENCODING 176
SWIDTH 346 0
DWIDTH 3 0
BBX 3 2 0 8
BITMAP
4EA0
4EA0
ENDCHAR
STARTCHAR plusminus
ENCODING 177
SWIDTH 580 0
DWIDTH 6 0
BBX 6 5 0 1
BITMAP
001100
004300
3FEDB2
002200
6ECB50
ENDCHAR
STARTCHAR twosuperior
ENCODING 178
SWIDTH 365 0
DWIDTH 4 0
BBX 4 6 0 3
BITMAP
0AC0
12B4
00B2
1640
4952
0360
ENDCHAR
STARTCHAR threesuperior
ENCODING 179
SWIDTH 371 0
DWIDTH 4 0
BBX 4 5 0 4
BITMAP
7F50
2650
21B5
6197
3EC1
ENDCHAR
STARTCHAR acute
ENCODING 180
SWIDTH 234 0
DWIDTH 2 0
BBX 2 2 0 8
BITMAP
08
52
ENDCHAR
STARTCHAR mu
ENCODING 181
SWIDTH 634 0
DWIDTH 6 0
BBX 7 8 0 -3
BITMAP
95001000
95069000
8704B000
8D27E230
7BE9CE30
78000000
6A000000
5C000000
ENDCHAR
STARTCHAR paragraph
ENCODING 182
SWIDTH 707 0
DWIDTH 7 0
BBX 7 13 0 -4
BITMAP
00001540
2ADEF900
CFF36600
EFF25500
9FF16500
05E16500
00B17500
00A27600
00A37800
00947C10
00A57FE0
03E60000
4C720000
ENDCHAR
STARTCHAR periodcentered
ENCODING 183
SWIDTH 238 0
DWIDTH 2 0
BBX 2 2 0 3
BITMAP
5B
5B
ENDCHAR
STARTCHAR cedilla
ENCODING 184
SWIDTH 332 0
DWIDTH 3 0
BBX 3 3 0 -2
BITMAP
0500
0390
4E80
ENDCHAR
STARTCHAR onesuperior
ENCODING 185
SWIDTH 336 0
DWIDTH 3 0
BBX 4 4 0 5
BITMAP
0560
1560
5B80
5AD1
ENDCHAR
STARTCHAR ordmasculine
ENCODING 186
SWIDTH 503 0
DWIDTH 5 0
BBX 5 5 0 3
BITMAP
1BEA10
722B80
9002A0
791380
1AEB10
ENDCHAR
STARTCHAR guillemotright
ENCODING 187
SWIDTH 778 0
DWIDTH 8 0
BBX 8 10 0 -3
BITMAP
00010000
20060000
36019100
09A33B40
006F78D1
00866B10
0462C000
08073000
02070000
00030000
ENDCHAR
STARTCHAR onequarter
ENCODING 188
SWIDTH 876 0
DWIDTH 9 0
BBX 9 11 0 -1
BITMAP
0000000100
0560005200
1560025000
5B80070000
5AD1716000
000444B000
001702C600
00707DFE00
052011C600
250007FF80
0000011000
ENDCHAR
STARTCHAR onehalf
ENCODING 189
SWIDTH 762 0
DWIDTH 8 0
BBX 8 11 0 -1
BITMAP
00000001
05600052
15600250
5B800700
5AD17100
00044BA0
001721D2
007000C1
05201630
25006951
00000540
ENDCHAR
STARTCHAR threequarters
ENCODING 190
SWIDTH 922 0
DWIDTH 9 0
BBX 9 11 0 -1
BITMAP
0000000100
7F50000600
2650006100
21B5044000
6197175100
3EC171C300
0006217640
00251CEF60
0070015C10
051001EFF0
0000002000
ENDCHAR
STARTCHAR questiondown
ENCODING 191
SWIDTH 571 0
DWIDTH 6 0
BBX 6 10 0 -2
BITMAP
008B00
008A00
000000
002300
003400
04A000
4F2AE3
AD03C7
AF4194
2BEE80
ENDCHAR
STARTCHAR Agrave
ENCODING 192
SWIDTH 784 0
DWIDTH 8 0
BBX 8 11 0 -1
BITMAP
05800000
00720000
04EF6000
000CB000
0034F200
0060C700
00C7BC00
0398DF30
09101E80
EE4009E2
14407FFE
ENDCHAR
STARTCHAR Aacute
ENCODING 193
SWIDTH 784 0
DWIDTH 8 0
BBX 8 12 0 -1
BITMAP
00045000
00070000
00000000
04EF6000
000CB000
0034F200
0060C700
00C7BC00
0398DF30
09101E80
EE4009E2
14407FFE
ENDCHAR
STARTCHAR Acircumflex
ENCODING 194
SWIDTH 784 0
DWIDTH 8 0
BBX 8 12 0 -1
BITMAP
00098100
00518900
00000000
04EF6000
000CB000
0034F200
0060C700
00C7BC00
0398DF30
09101E80
EE4009E2
14407FFE
ENDCHAR
STARTCHAR Atilde
ENCODING 195
SWIDTH 784 0
DWIDTH 8 0
BBX 8 11 0 -1
BITMAP
00D91000
001AE100
04EF6000
000CB000
0034F200
0060C700
00C7BC00
0398DF30
09101E80
EE4009E2
14407FFE
ENDCHAR
STARTCHAR Adieresis
ENCODING 196
SWIDTH 784 0
DWIDTH 8 0
BBX 8 11 0 -1
BITMAP
0097B100
00000000
04EF6000
000CB000
0034F200
0060C700
00C7BC00
0398DF30
09101E80
EE4009E2
14407FFE
ENDCHAR
STARTCHAR Aring
ENCODING 197
SWIDTH 784 0
DWIDTH 8 0
BBX 8 12 0 -1
BITMAP
002D8000
00637000
002E8000
04EF6000
000CB000
0034F200
0060C700
00C7BC00
0398DF30
09101E80
EE4009E2
14407FFE
ENDCHAR
STARTCHAR AE
ENCODING 198
SWIDTH 1172 0
DWIDTH 12 0
BBX 12 11 0 -2
BITMAP
000000000100
00000137BD00
0002FFFA6800
000017F20300
000014D54500
000050CFD500
000160C90504
0008FFFB0027
003A109E02B9
04C1009E8410
EEE903610000
ENDCHAR
STARTCHAR Ccedilla
ENCODING 199
SWIDTH 742 0
DWIDTH 7 0
BBX 8 12 0 -4
BITMAP
00000050
04BEED90
3F8117A0
BC000060
D9000000
EA000004
BE100033
3FB303A0
03BEEA10
00025000
0000A300
000BD200
ENDCHAR
STARTCHAR Egrave
ENCODING 200
SWIDTH 557 0
DWIDTH 6 0
BBX 6 12 0 -2
BITMAP
1B0000
046000
5469D0
4F5040
0E4000
0C5200
0AEB00
087500
078101
06A016
BFFDF6
001241
ENDCHAR
STARTCHAR Eacute
ENCODING 201
SWIDTH 557 0
DWIDTH 6 0
BBX 6 13 0 -2
BITMAP
000900
003400
000000
5469D0
4F5040
0E4000
0C5200
0AEB00
087500
078101
06A016
BFFDF6
001241
ENDCHAR
STARTCHAR Ecircumflex
ENCODING 202
SWIDTH 557 0
DWIDTH 6 0
BBX 6 13 0 -2
BITMAP
009810
0528A0
000000
5469D0
4F5040
0E4000
0C5200
0AEB00
087500
078101
06A016
BFFDF6
001241
ENDCHAR
STARTCHAR Edieresis
ENCODING 203
SWIDTH 557 0
DWIDTH 6 0
BBX 6 12 0 -2
BITMAP
096B10
000000
5469D0
4F5040
0E4000
0C5200
0AEB00
087500
078101
06A016
BFFDF6
001241
ENDCHAR
STARTCHAR Igrave
ENCODING 204
SWIDTH 438 0
DWIDTH 4 0
BBX 6 12 -1 -2
BITMAP
01B000
2DFFED
02CE30
009B00
009900
009700
009500
009400
009300
00A400
07FF70
462000
ENDCHAR
STARTCHAR Iacute
ENCODING 205
SWIDTH 438 0
DWIDTH 4 0
BBX 6 13 -1 -2
BITMAP
000180
000520
2DCDED
02CE30
009B00
009900
009700
009500
009400
009300
00A400
07FF70
462000
ENDCHAR
STARTCHAR Icircumflex
ENCODING 206
SWIDTH 438 0
DWIDTH 4 0
BBX 6 13 -1 -2
BITMAP
001B50
0151B6
2DCDED
02CE30
009B00
009900
009700
009500
009400
009300
00A400
07FF70
462000
ENDCHAR
STARTCHAR Idieresis
ENCODING 207
SWIDTH 438 0
DWIDTH 4 0
BBX 6 12 -1 -2
BITMAP
01D490
2DCDED
02CE30
009B00
009900
009700
009500
009400
009300
00A400
07FF70
462000
ENDCHAR
STARTCHAR Eth
ENCODING 208
SWIDTH 730 0
DWIDTH 7 0
BBX 8 8 0 -2
BITMAP
6CDFEA20
19A15ED1
06A108F5
8EF606F5
17A008F2
08C05F80
0DFEA400
75100000
ENDCHAR
STARTCHAR Ntilde
ENCODING 209
SWIDTH 799 0
DWIDTH 8 0
BBX 8 13 0 -3
BITMAP
0009C200
00007E50
01100002
EFD10EFD
0AFB01A0
067F9060
050AF660
0501CF80
05002E80
05000370
1A100000
DFD10000
00310000
ENDCHAR
STARTCHAR Ograve
ENCODING 210
SWIDTH 747 0
DWIDTH 7 0
BBX 8 10 0 0
BITMAP
02A00000
00550000
00000000
05DFD810
5D314EB0
C60005F4
E50001F6
C90002F4
5F612AC0
05CFE910
ENDCHAR
STARTCHAR Oacute
ENCODING 211
SWIDTH 747 0
DWIDTH 7 0
BBX 8 11 0 0
BITMAP
00045000
00070000
00000000
00000000
05DFD810
5D314EB0
C60005F4
E50001F6
C90002F4
5F612AC0
05CFE910
ENDCHAR
STARTCHAR Ocircumflex
ENCODING 212
SWIDTH 747 0
DWIDTH 7 0
BBX 8 11 0 0
BITMAP
002C5000
0151B500
00000000
00000000
05DFD810
5D314EB0
C60005F4
E50001F6
C90002F4
5F612AC0
05CFE910
ENDCHAR
STARTCHAR Otilde
ENCODING 213
SWIDTH 747 0
DWIDTH 7 0
BBX 8 10 0 0
BITMAP
00AB2000
0008E400
00000000
05DFD810
5D314EB0
C60005F4
E50001F6
C90002F4
5F612AC0
05CFE910
ENDCHAR
STARTCHAR Odieresis
ENCODING 214
SWIDTH 747 0
DWIDTH 7 0
BBX 8 10 0 0
BITMAP
00A5C000
00000000
00000000
05DFD810
5D314EB0
C60005F4
E50001F6
C90002F4
5F612AC0
05CFE910
ENDCHAR
STARTCHAR multiply
ENCODING 215
SWIDTH 541 0
DWIDTH 5 0
BBX 5 6 0 0
BITMAP
000060
040510
039300
027710
070010
420000
ENDCHAR
STARTCHAR Oslash
ENCODING 216
SWIDTH 747 0
DWIDTH 7 0
BBX 8 9 0 -1
BITMAP
00000060
05DFD940
5D304EB0
C60067F4
E50621F6
C86202F4
5F812AC0
09CFE910
41000000
ENDCHAR
STARTCHAR Ugrave
ENCODING 217
SWIDTH 690 0
DWIDTH 7 0
BBX 8 10 0 0
BITMAP
00390000
00054000
00000000
137C3000
EFF6EDD6
1DB01930
0BA00410
0AB00510
06F41900
009ED400
ENDCHAR
STARTCHAR Uacute
ENCODING 218
SWIDTH 690 0
DWIDTH 7 0
BBX 8 10 0 0
BITMAP
00000540
00000700
00000000
137C3000
EFF6EDD6
1DB01930
0BA00410
0AB00510
06F41900
009ED400
ENDCHAR
STARTCHAR Ucircumflex
ENCODING 219
SWIDTH 690 0
DWIDTH 7 0
BBX 8 10 0 0
BITMAP
0004B300
00243D10
00000000
137C3000
EFF6EDD6
1DB01930
0BA00410
0AB00510
06F41900
009ED400
ENDCHAR
STARTCHAR Udieresis
ENCODING 220
SWIDTH 690 0
DWIDTH 7 0
BBX 8 10 0 0
BITMAP
002D5800
00000000
00000000
137C3000
EFF6EDD6
1DB01930
0BA00410
0AB00510
06F41900
009ED400
ENDCHAR
STARTCHAR Yacute
ENCODING 221
SWIDTH 796 0
DWIDTH 8 0
BBX 9 13 0 -2
BITMAP
0000054000
0000070000
0144004100
DFD400AFC0
18E2005200
008D352000
000AF40000
0001F00000
0000F00000
0001F10000
0005F30000
009FFC0000
0000150000
ENDCHAR
STARTCHAR Thorn
ENCODING 222
SWIDTH 479 0
DWIDTH 5 0
BBX 5 11 0 -2
BITMAP
9FF100
1D3000
0BFD50
0B18E0
0C07E0
0DEE50
0D0000
0E0000
2F1000
9FC000
102000
ENDCHAR
STARTCHAR germandbls
ENCODING 223
SWIDTH 591 0
DWIDTH 6 0
BBX 7 11 -1 -1
BITMAP
05EC1000
0A196000
08055000
09020000
0A4EC500
0922AF40
07700BA0
04B004B0
01F10490
04D7EC20
14000000
ENDCHAR
STARTCHAR agrave
ENCODING 224
SWIDTH 527 0
DWIDTH 5 0
BBX 6 9 0 -1
BITMAP
840000
090000
1CE500
554D00
3D0F10
4DFF40
C51D70
7EB9A3
0002E5
ENDCHAR
STARTCHAR aacute
ENCODING 225
SWIDTH 527 0
DWIDTH 5 0
BBX 6 10 0 -1
BITMAP
003600
007000
000000
1CE500
554D00
3D0F10
4DFF40
C51D70
7EB9A3
0002E5
ENDCHAR
STARTCHAR acircumflex
ENCODING 226
SWIDTH 527 0
DWIDTH 5 0
BBX 6 10 0 -1
BITMAP
02C500
152B40
000000
1CE500
554D00
3D0F10
4DFF40
C51D70
7EB9A3
0002E5
ENDCHAR
STARTCHAR atilde
ENCODING 227
SWIDTH 527 0
DWIDTH 5 0
BBX 6 9 0 -1
BITMAP
0CA100
009E20
1CE500
554D00
3D0F10
4DFF40
C51D70
7EB9A3
0002E5
ENDCHAR
STARTCHAR adieresis
ENCODING 228
SWIDTH 527 0
DWIDTH 5 0
BBX 6 8 0 -1
BITMAP
0C9300
1CE500
554D00
3D0F10
4DFF40
C51D70
7EB9A3
0002E5
ENDCHAR
STARTCHAR aring
ENCODING 229
SWIDTH 527 0
DWIDTH 5 0
BBX 6 10 0 -1
BITMAP
05E400
081700
06E400
1CE500
554D00
3D0F10
4DFF40
C51D70
7EB9A3
0002E5
ENDCHAR
STARTCHAR ae
ENCODING 230
SWIDTH 700 0
DWIDTH 7 0
BBX 7 7 0 -1
BITMAP
0001CE30
5E661780
83B42B60
1BFFE900
95860040
C19E3180
7E48ED40
ENDCHAR
STARTCHAR ccedilla
ENCODING 231
SWIDTH 437 0
DWIDTH 4 0
BBX 5 9 0 -2
BITMAP
09FA00
756D00
B00000
C10410
991620
2CE900
008000
036700
05E400
ENDCHAR
STARTCHAR egrave
ENCODING 232
SWIDTH 434 0
DWIDTH 4 0
BBX 5 8 0 0
BITMAP
390000
063000
000000
1AEB00
981D20
CFE900
A91420
2CFB00
ENDCHAR
STARTCHAR eacute
ENCODING 233
SWIDTH 434 0
DWIDTH 4 0
BBX 5 9 0 0
BITMAP
003500
007000
000000
000000
1AEB00
981D20
CFE900
A91420
2CFB00
ENDCHAR
STARTCHAR ecircumflex
ENCODING 234
SWIDTH 434 0
DWIDTH 4 0
BBX 5 9 0 0
BITMAP
03C400
242C30
000000
000000
1AEB00
981D20
CFE900
A91420
2CFB00
ENDCHAR
STARTCHAR edieresis
ENCODING 235
SWIDTH 434 0
DWIDTH 4 0
BBX 5 7 0 0
BITMAP
098700
000000
1AEB00
981D20
CFE900
A91420
2CFB00
ENDCHAR
STARTCHAR igrave
ENCODING 236
SWIDTH 301 0
DWIDTH 3 0
BBX 4 8 -1 1
BITMAP
4800
0630
0000
0CF3
01F1
00F0
01E1
0BEC
ENDCHAR
STARTCHAR iacute
ENCODING 237
SWIDTH 301 0
DWIDTH 3 0
BBX 3 8 0 1
BITMAP
0450
0700
0000
CF30
1F10
0F00
1E10
BEC0
ENDCHAR
STARTCHAR icircumflex
ENCODING 238
SWIDTH 301 0
DWIDTH 3 0
BBX 5 8 -1 1
BITMAP
01B500
151B60
000000
0CF300
01F100
00F000
01E100
0BEC00
ENDCHAR
STARTCHAR idieresis
ENCODING 239
SWIDTH 301 0
DWIDTH 3 0
BBX 3 6 0 1
BITMAP
7890
CF30
1F10
0F00
1E10
BEC0
ENDCHAR
STARTCHAR eth
ENCODING 240
SWIDTH 476 0
DWIDTH 5 0
BBX 6 10 -1 -1
BITMAP
000210
5DFB10
0029A0
0020C2
000086
00AED8
05B1A9
079048
04E265
008EB0
ENDCHAR
STARTCHAR ntilde
ENCODING 241
SWIDTH 584 0
DWIDTH 6 0
BBX 6 9 0 -1
BITMAP
00AB20
0008E4
040000
5E1CD1
1D41C5
094095
0660B4
3FECF2
001035
ENDCHAR
STARTCHAR ograve
ENCODING 242
SWIDTH 400 0
DWIDTH 4 0
BBX 7 8 0 2
BITMAP
00000880
00000180
75000340
08115900
4CAE8000
C5580000
C38C0000
5ED50000
ENDCHAR
STARTCHAR oacute
ENCODING 243
SWIDTH 400 0
DWIDTH 4 0
BBX 7 8 0 2
BITMAP
00000880
00450180
00700340
00015900
4CAE8000
C5580000
C38C0000
5ED50000
ENDCHAR
STARTCHAR ocircumflex
ENCODING 244
SWIDTH 400 0
DWIDTH 4 0
BBX 7 8 0 2
BITMAP
00000880
04B30180
243D2340
00015900
4CAE8000
C5580000
C38C0000
5ED50000
ENDCHAR
STARTCHAR otilde
ENCODING 245
SWIDTH 400 0
DWIDTH 4 0
BBX 7 8 0 2
BITMAP
00000880
00000180
0DA10340
01AF7900
4CAE8000
C5580000
C38C0000
5ED50000
ENDCHAR
STARTCHAR odieresis
ENCODING 246
SWIDTH 400 0
DWIDTH 4 0
BBX 7 8 0 2
BITMAP
00000880
00000180
00000340
0B865900
4CAE8000
C5580000
C38C0000
5ED50000
ENDCHAR
STARTCHAR divide
ENCODING 247
SWIDTH 592 0
DWIDTH 6 0
BBX 6 5 0 1
BITMAP
00A300
000010
7FDDD5
000000
009300
ENDCHAR
STARTCHAR oslash
ENCODING 248
SWIDTH 396 0
DWIDTH 4 0
BBX 4 7 0 0
BITMAP
0040
4DE4
B59B
C86A
5FD3
1500
1100
ENDCHAR
STARTCHAR ugrave
ENCODING 249
SWIDTH 744 0
DWIDTH 7 0
BBX 8 7 0 0
BITMAP
00A20000
00180000
BF25FC00
09502D00
07801F10
04E26BE6
00AE6220
ENDCHAR
STARTCHAR uacute
ENCODING 250
SWIDTH 744 0
DWIDTH 7 0
BBX 8 8 0 0
BITMAP
00045000
00070000
00000000
BF25FC00
09502D00
07801F10
04E26BE6
00AE6220
ENDCHAR
STARTCHAR ucircumflex
ENCODING 251
SWIDTH 744 0
DWIDTH 7 0
BBX 8 8 0 0
BITMAP
004B3000
0344D100
00000000
BF25FC00
09502D00
07801F10
04E26BE6
00AE6220
ENDCHAR
STARTCHAR udieresis
ENCODING 252
SWIDTH 744 0
DWIDTH 7 0
BBX 8 7 0 0
BITMAP
00789000
00000000
BF25FC00
09502D00
07801F10
04E26BE6
00AE6220
ENDCHAR
STARTCHAR yacute
ENCODING 253
SWIDTH 659 0
DWIDTH 7 0
BBX 7 13 0 -5
BITMAP
00009000
00034000
16C00010
CF54EF60
2F106E00
0E304D00
09A19C00
02CE7A00
00004800
00007400
07E1A000
06178000
08EA0000
ENDCHAR
STARTCHAR thorn
ENCODING 254
SWIDTH 514 0
DWIDTH 5 0
BBX 6 14 -1 -5
BITMAP
008000
7F6000
085000
066000
05DEB2
04A1CA
04907D
03C1AD
03DDE5
03C000
03E000
04F000
05F400
2FFF50
ENDCHAR
STARTCHAR ydieresis
ENCODING 255
SWIDTH 659 0
DWIDTH 7 0
BBX 7 12 0 -5
BITMAP
002BB000
16C00010
CF54EF60
2F106E00
0E304D00
09A19C00
02CE7A00
00004800
00007400
07E1A000
06178000
08EA0000
ENDCHAR
STARTCHAR dotlessi
ENCODING 305
SWIDTH 301 0
DWIDTH 3 0
BBX 3 5 0 1
BITMAP
CF30
1F10
0F00
1E10
BEC0
ENDCHAR
STARTCHAR OE
ENCODING 338
SWIDTH 1132 0
DWIDTH 11 0
BBX 12 11 0 -2
BITMAP
000000002810
04CFD7CFED30
3E513CE90000
A90002F80100
D70000B91500
D900009FB900
AE1000BB0400
2FC316EC0003
03BFE88E0294
000003CFFFF4
000006521010
ENDCHAR
STARTCHAR oe
ENCODING 339
SWIDTH 798 0
DWIDTH 8 0
BBX 8 4 0 1
BITMAP
3DE74DE2
B42DEFC6
B919F517
3CE88FE4
ENDCHAR
STARTCHAR circumflex
ENCODING 710
SWIDTH 483 0
DWIDTH 5 0
BBX 5 2 0 7
BITMAP
02C500
152B40
ENDCHAR
STARTCHAR caron
ENCODING 711
SWIDTH 428 0
DWIDTH 4 0
BBX 4 3 0 7
BITMAP
2003
1861
0540
ENDCHAR
STARTCHAR ring
ENCODING 730
SWIDTH 330 0
DWIDTH 3 0
BBX 3 3 0 8
BITMAP
3E70
7270
3E70
ENDCHAR
STARTCHAR tilde
ENCODING 732
SWIDTH 433 0
DWIDTH 4 0
BBX 4 2 0 7
BITMAP
4E50
03DA
ENDCHAR
STARTCHAR mu.dup1
ENCODING 956
SWIDTH 634 0
DWIDTH 6 0
BBX 7 8 0 -3
BITMAP
95001000
95069000
8704B000
8D27E230
7BE9CE30
78000000
6A000000
5C000000
ENDCHAR
STARTCHAR endash
ENCODING 8211
SWIDTH 436 0
DWIDTH 4 0
BBX 4 2 0 2
BITMAP
1001
4DFA
ENDCHAR
STARTCHAR emdash
ENCODING 8212
SWIDTH 651 0
DWIDTH 7 0
BBX 6 2 0 1
BITMAP
037ADE
243210
ENDCHAR
STARTCHAR quoteleft
ENCODING 8216
SWIDTH 287 0
DWIDTH 3 0
BBX 3 3 0 5
BITMAP
0710
6D00
5E10
ENDCHAR
STARTCHAR quoteright
ENCODING 8217
SWIDTH 291 0
DWIDTH 3 0
BBX 3 3 0 5
BITMAP
5E30
1B60
0610
ENDCHAR
STARTCHAR quotesinglbase
ENCODING 8218
SWIDTH 272 0
DWIDTH 3 0
BBX 3 3 0 -1
BITMAP
5E10
1B10
0500
ENDCHAR
STARTCHAR quotedblleft
ENCODING 8220
SWIDTH 445 0
DWIDTH 4 0
BBX 4 4 0 4
BITMAP
0425
2945
7D7B
5D5C
ENDCHAR
STARTCHAR quotedblright
ENCODING 8221
SWIDTH 444 0
DWIDTH 4 0
BBX 4 3 0 5
BITMAP
5D8C
1C4C
0652
ENDCHAR
STARTCHAR quotedblbase
ENCODING 8222
SWIDTH 482 0
DWIDTH 5 0
BBX 5 3 0 -2
BITMAP
5E6E30
2C5C20
052500
ENDCHAR
STARTCHAR bullet
ENCODING 8226
SWIDTH 351 0
DWIDTH 4 0
BBX 3 2 0 3
BITMAP
4EB0
5EB0
ENDCHAR
STARTCHAR guilsinglleft
ENCODING 8249
SWIDTH 465 0
DWIDTH 5 0
BBX 5 7 0 -1
BITMAP
000100
003200
028000
3E4000
07C000
005700
000410
ENDCHAR
STARTCHAR guilsinglright
ENCODING 8250
SWIDTH 449 0
DWIDTH 5 0
BBX 4 7 0 -1
BITMAP
1100
0800
0591
01E9
0880
1900
5100
ENDCHAR
STARTCHAR fraction
ENCODING 8260
SWIDTH 406 0
DWIDTH 4 0
BBX 8 10 -2 0
BITMAP
00000001
00000060
00000440
00001700
00008000
00062000
00350000
00700000
06100000
33000000
ENDCHAR
STARTCHAR foursuperior
ENCODING 8308
SWIDTH 473 0
DWIDTH 5 0
BBX 5 7 0 2
BITMAP
006000
05B000
02C600
7DFE00
11C500
08FF70
011000
ENDCHAR
STARTCHAR Euro
ENCODING 8364
SWIDTH 799 0
DWIDTH 8 0
BBX 9 9 0 0
BITMAP
0000000020
0019EEA810
00CC316B00
06F2000500
1BD4500000
4DC5100000
6AD0004000
03F8127000
005CEB2000
ENDCHAR
STARTCHAR minus
ENCODING 8722
SWIDTH 436 0
DWIDTH 4 0
BBX 4 2 0 2
BITMAP
1001
4DFA
ENDCHAR
STARTCHAR f_f
ENCODING 64256
SWIDTH 467 0
DWIDTH 5 0
BBX 6 15 0 -3
BITMAP
01CD10
074E10
0709E8
08486D
1872B9
199210
7FED50
2A7400
0C5700
0D2B00
0D1E30
0C4DE2
0A9820
0BD100
AEFD00
ENDCHAR
STARTCHAR .notdef
ENCODING -1
SWIDTH 270 0
DWIDTH 3 0
BBX 3 6 0 0
BITMAP
9F50
1010
1010
1010
1010
9F50
ENDCHAR
STARTCHAR .null
ENCODING -1
SWIDTH 0 0
DWIDTH 0 0
BBX 1 1 0 0
BITMAP
00
ENDCHAR
STARTCHAR nonmarkingreturn
ENCODING -1
SWIDTH 270 0
DWIDTH 3 0
BBX 1 1 0 0
BITMAP
00
ENDCHAR
STARTCHAR dieresis.case
ENCODING -1
SWIDTH 393 0
DWIDTH 4 0
BBX 4 1 0 8
BITMAP
5A84
ENDCHAR
STARTCHAR o.cmp
ENCODING -1
SWIDTH 400 0
DWIDTH 4 0
BBX 7 8 0 2
BITMAP
00000880
00000180
00000340
00015900
4CAE8000
C5580000
C38C0000
5ED50000
ENDCHAR
STARTCHAR n_n
ENCODING -1
SWIDTH 1024 0
DWIDTH 10 0
BBX 11 7 0 -1
BITMAP
290000000000
DE2DD6F9E800
0D61C6C64D00
095095C35B00
0660B8FEFD10
3FECF7100310
001016000000
ENDCHAR
STARTCHAR a_a
ENCODING -1
SWIDTH 911 0
DWIDTH 9 0
BBX 10 7 0 0
BITMAP
00003DE500
0000783D00
5EB0000D00
9393AFDE10
4DF8C82F20
B78ACF9E40
8E6CE207E5
ENDCHAR
STARTCHAR t_h
ENCODING -1
SWIDTH 854 0
DWIDTH 9 0
BBX 10 13 -1 -3
BITMAP
000CFD0000
00003C0000
00051B0000
005B2A0000
2DFFFF5000
01973ACE80
00A55D22F2
00B56887C4
007C9766D3
0019EF91F1
000CFF86D0
0000008FE1
0000000057
ENDCHAR
STARTCHAR s_s
ENCODING -1
SWIDTH 654 0
DWIDTH 7 0
BBX 8 9 -1 -1
BITMAP
00001012
006ECEE1
0093B761
00262800
01036740
060093D1
186AC4D5
008FA5F4
0009EE80
ENDCHAR
STARTCHAR t_t
ENCODING -1
SWIDTH 569 0
DWIDTH 6 0
BBX 6 9 0 -1
BITMAP
002C30
15BF50
DFE900
0F6700
1E5800
2E3D67
0F19E7
0A73E0
01BF90
ENDCHAR
STARTCHAR e_e
ENCODING -1
SWIDTH 782 0
DWIDTH 8 0
BBX 8 6 0 0
BITMAP
3CE3BE80
C48BA1A0
EE796090
AA25CB44
19EEE717
00003DE3
ENDCHAR
STARTCHAR o_o
ENCODING -1
SWIDTH 751 0
DWIDTH 8 0
BBX 11 9 0 1
BITMAP
000000001E20
000000000720
000000000800
00000003A400
1BFEC5EC4000
991980A10000
C30971D40000
A61BDEA00000
2CE600000000
ENDCHAR
STARTCHAR l_l
ENCODING -1
SWIDTH 573 0
DWIDTH 6 0
BBX 7 10 -1 -1
BITMAP
049AF700
3CC0C700
04C0A700
03C09800
03C08800
03D08A00
04D08D10
05E1AEB0
7FF10000
02660000
ENDCHAR
STARTCHAR z_z
ENCODING -1
SWIDTH 875 0
DWIDTH 9 0
BBX 10 7 -1 -1
BITMAP
0006FFD000
0000037000
05FFCA1000
000C690500
0085CFFA6B
039000005B
1DEFFFFFC2
ENDCHAR
STARTCHAR j_j
ENCODING -1
SWIDTH 577 0
DWIDTH 6 0
BBX 8 14 -2 -6
BITMAP
00002E10
00002E10
00068220
00007FB0
006FF9F1
0005F5E4
0000C696
00008768
00007648
09D07538
1C509237
1914E045
07EDF481
0000BD40
ENDCHAR
STARTCHAR f_b
ENCODING -1
SWIDTH 731 0
DWIDTH 7 0
BBX 9 13 -1 -2
BITMAP
000AE50000
00662A0000
0093E70000
00B19B0000
18F6EC0000
48E01C0000
00F00C0000
00F00C0000
00F10EEC10
00F21C1E40
00F47FFC10
01FF801000
0420000000
ENDCHAR
STARTCHAR f_k
ENCODING -1
SWIDTH 708 0
DWIDTH 7 0
BBX 7 12 0 -2
BITMAP
01730000
2EEFC100
0387D100
09840000
6B842000
1A756E30
1A799100
1A7C9030
2A78D460
AC795DA0
08FFF100
01001000
ENDCHAR
STARTCHAR f_h
ENCODING -1
SWIDTH 873 0
DWIDTH 9 0
BBX 10 13 -1 -2
BITMAP
000AE40000
00462A0000
0082C91000
00918A4000
00ECFF2000
3BF20B0000
24F00B0000
00F00C8EA0
00F10E44E0
00F13D08FA
00F7FF4201
04FE511000
0520000000
ENDCHAR
ENDFONT
